# xmcd
#
# Track frame offsets: 
#        150
#        11715
#        23592
#        36610
#        49977
#        63262
#        74922
#        87460
#        100685
#        113012
#        126935
#        138335
#        155790
#        170620
#        182125
#        194082
#        207085
#        220497
#        240067
#        252552
#        265242
#        276397
#        290505
#        310590
#
# Disc length: 4381 seconds
#
# Revision: 5
# Processed by: cddbd v1.5.2PL0 Copyright (c) Steve Scherf et al.
# Submitted via: ExactAudioCopy v0.95b4
#
DISCID=77111b18
DTITLE=Various Artist - Motown - The Hits Collection Vol 2 - Cd1
DYEAR=1900
DGENRE=Motown
TTITLE0=Supremes - Where Did Our Love Go
TTITLE1=Four Tops - Standing in The Shadows of Love
TTITLE2=Stevie Wonder - Uptight (Everythings Alright)
TTITLE3=Jimmy Ruffin - I'll Say Forever my Love
TTITLE4=Marvin Gaye and Kim Weston - It Takes Two
TTITLE5=Temptations - Get Ready
TTITLE6=Supremes - The Happening
TTITLE7=Jackson 5 - Abc
TTITLE8=Four Tops - It's All in The Game
TTITLE9=R. Dean Taylor - Gotta See Jane
TTITLE10=Michael Jackson - Rockin Robin
TTITLE11=Syreeta - Your Kiss is Sweet
TTITLE12=Diana Ross - Remember Me
TTITLE13=Elgins - Heaven Must Have Sent You
TTITLE14=Marv Johnson - I'll Pick a Rose For my Rose
TTITLE15=Supremes - Stop in The Name of Love
TTITLE16=Marvin Gaye and Tammi Terrell - The Onion Song
TTITLE17=Gladys Knight and The Pips - Help me Make it Through The Night
TTITLE18=Martha Reeves and The Vandellas - Nowhere to Run
TTITLE19=Supremes - Love Child
TTITLE20=Junior Walker and The All Stars - What Does it Take (To Win You
TTITLE20=r Love)
TTITLE21=Stevie Wonder - Never Had a Dream Come True
TTITLE22=Diana Ross and Lionel Richie - Endless Love
TTITLE23=Boyz ii Men - I'll Make Love to You
EXTD=
EXTT0=
EXTT1=
EXTT2=
EXTT3=
EXTT4=
EXTT5=
EXTT6=
EXTT7=
EXTT8=
EXTT9=
EXTT10=
EXTT11=
EXTT12=
EXTT13=
EXTT14=
EXTT15=
EXTT16=
EXTT17=
EXTT18=
EXTT19=
EXTT20=
EXTT21=
EXTT22=
EXTT23=
PLAYORDER=
